<svg xmlns="http://www.w3.org/2000/svg" width="96" height="96" viewBox="0 0 96 96" role="img" aria-label="day Mongree character">
  <defs>
    <radialGradient id="dayBody" cx="34%" cy="24%" r="72%">
      <stop offset="0%" stop-color="oklch(0.98 0.07 86)"/>
      <stop offset="54%" stop-color="oklch(0.88 0.12 82)"/>
      <stop offset="100%" stop-color="oklch(0.72 0.13 75)"/>
    </radialGradient>
    <linearGradient id="dayGlow" x1="20%" x2="80%" y1="10%" y2="92%">
      <stop offset="0%" stop-color="oklch(0.99 0.05 96)" stop-opacity="0.95"/>
      <stop offset="100%" stop-color="oklch(0.83 0.16 72)" stop-opacity="0.2"/>
    </linearGradient>
    <filter id="softShadow" x="-30%" y="-20%" width="160%" height="160%">
      <feDropShadow dx="0" dy="7" stdDeviation="5" flood-color="oklch(0.52 0.08 72)" flood-opacity="0.3"/>
    </filter>
    <filter id="floorBlur" x="-20%" y="-20%" width="140%" height="140%">
      <feGaussianBlur stdDeviation="3"/>
    </filter>
  </defs>
  <ellipse cx="48" cy="82" rx="27" ry="7" fill="oklch(0.55 0.06 70)" opacity="0.16" filter="url(#floorBlur)"/>
  <g filter="url(#softShadow)">
    <circle cx="48" cy="51" r="29" fill="url(#dayBody)"/>
    <circle cx="48" cy="43" r="20" fill="url(#dayGlow)" opacity="0.86"/>
    <circle cx="40" cy="42" r="2.8" fill="oklch(0.25 0.03 60)"/>
    <circle cx="56" cy="42" r="2.8" fill="oklch(0.25 0.03 60)"/>
    <path d="M39 51 Q48 58 57 51" stroke="oklch(0.25 0.03 60)" stroke-width="2.4" fill="none" stroke-linecap="round"/>
    <path d="M48 13 L52 24 L64 21 L58 32 L68 39 L55 40 L54 53 L48 43 L41 53 L41 40 L28 39 L38 32 L32 21 L44 24 Z" fill="oklch(0.94 0.14 88)" opacity="0.42"/>
    <ellipse cx="38" cy="33" rx="8" ry="4" fill="oklch(0.99 0.03 90)" opacity="0.42" transform="rotate(-25 38 33)"/>
  </g>
</svg>
