<svg xmlns="http://www.w3.org/2000/svg" width="96" height="96" viewBox="0 0 96 96" role="img" aria-label="night Mongree character">
  <defs>
    <radialGradient id="nightBody" cx="33%" cy="22%" r="78%">
      <stop offset="0%" stop-color="oklch(0.68 0.08 265)"/>
      <stop offset="58%" stop-color="oklch(0.44 0.1 263)"/>
      <stop offset="100%" stop-color="oklch(0.26 0.08 268)"/>
    </radialGradient>
    <linearGradient id="moonGlow" x1="28%" x2="76%" y1="12%" y2="82%">
      <stop offset="0%" stop-color="oklch(0.91 0.05 92)" stop-opacity="0.9"/>
      <stop offset="100%" stop-color="oklch(0.58 0.08 260)" stop-opacity="0.08"/>
    </linearGradient>
    <filter id="nightShadow" x="-30%" y="-20%" width="160%" height="160%">
      <feDropShadow dx="0" dy="8" stdDeviation="5" flood-color="oklch(0.2 0.08 270)" flood-opacity="0.38"/>
    </filter>
    <filter id="nightFloorBlur" x="-20%" y="-20%" width="140%" height="140%">
      <feGaussianBlur stdDeviation="3"/>
    </filter>
  </defs>
  <ellipse cx="48" cy="82" rx="27" ry="7" fill="oklch(0.18 0.06 270)" opacity="0.22" filter="url(#nightFloorBlur)"/>
  <g filter="url(#nightShadow)">
    <circle cx="48" cy="52" r="29" fill="url(#nightBody)"/>
    <circle cx="48" cy="43" r="20" fill="url(#moonGlow)" opacity="0.5"/>
    <path d="M37 41 Q41 38 45 41" stroke="oklch(0.87 0.04 260)" stroke-width="2.4" fill="none" stroke-linecap="round"/>
    <path d="M51 41 Q55 38 59 41" stroke="oklch(0.87 0.04 260)" stroke-width="2.4" fill="none" stroke-linecap="round"/>
    <path d="M40 51 Q48 56 56 51" stroke="oklch(0.87 0.04 260)" stroke-width="2.2" fill="none" stroke-linecap="round"/>
    <path d="M63 19 A11 11 0 1 0 70 35 A13 13 0 1 1 63 19" fill="oklch(0.93 0.08 92)"/>
    <circle cx="26" cy="22" r="2" fill="oklch(0.93 0.1 90)" opacity="0.9"/>
    <circle cx="72" cy="48" r="1.8" fill="oklch(0.93 0.1 90)" opacity="0.75"/>
    <ellipse cx="39" cy="35" rx="8" ry="4" fill="oklch(0.86 0.04 250)" opacity="0.22" transform="rotate(-24 39 35)"/>
  </g>
</svg>
