<svg xmlns="http://www.w3.org/2000/svg" width="96" height="96" viewBox="0 0 96 96" role="img" aria-label="rain Mongree character">
  <defs>
    <radialGradient id="rainFace" cx="34%" cy="24%" r="78%">
      <stop offset="0%" stop-color="oklch(0.88 0.08 230)"/>
      <stop offset="56%" stop-color="oklch(0.68 0.1 235)"/>
      <stop offset="100%" stop-color="oklch(0.45 0.11 242)"/>
    </radialGradient>
    <linearGradient id="umbrella" x1="20%" x2="80%" y1="20%" y2="88%">
      <stop offset="0%" stop-color="oklch(0.78 0.13 238)"/>
      <stop offset="100%" stop-color="oklch(0.48 0.14 245)"/>
    </linearGradient>
    <filter id="rainShadow" x="-30%" y="-20%" width="160%" height="160%">
      <feDropShadow dx="0" dy="8" stdDeviation="5" flood-color="oklch(0.28 0.08 240)" flood-opacity="0.34"/>
    </filter>
    <filter id="rainFloorBlur" x="-20%" y="-20%" width="140%" height="140%">
      <feGaussianBlur stdDeviation="3"/>
    </filter>
  </defs>
  <ellipse cx="48" cy="82" rx="28" ry="7" fill="oklch(0.28 0.06 240)" opacity="0.18" filter="url(#rainFloorBlur)"/>
  <g filter="url(#rainShadow)">
    <path d="M19 38 Q48 12 77 38 Q62 33 48 38 Q34 33 19 38 Z" fill="url(#umbrella)"/>
    <path d="M48 38 L48 63 Q48 70 55 70" stroke="oklch(0.38 0.09 240)" stroke-width="2.5" fill="none" stroke-linecap="round"/>
    <circle cx="48" cy="55" r="20" fill="url(#rainFace)"/>
    <circle cx="41" cy="52" r="2.5" fill="oklch(0.22 0.04 240)"/>
    <circle cx="55" cy="52" r="2.5" fill="oklch(0.22 0.04 240)"/>
    <path d="M41 61 Q48 65 55 61" stroke="oklch(0.22 0.04 240)" stroke-width="2.2" fill="none" stroke-linecap="round"/>
    <path d="M25 55 C21 61 21 66 26 68 C31 66 31 61 25 55Z" fill="oklch(0.72 0.12 230)" opacity="0.74"/>
    <path d="M73 50 C69 56 69 61 74 63 C79 61 79 56 73 50Z" fill="oklch(0.74 0.12 230)" opacity="0.62"/>
    <ellipse cx="40" cy="45" rx="8" ry="4" fill="oklch(0.92 0.05 230)" opacity="0.28" transform="rotate(-25 40 45)"/>
  </g>
</svg>
