<svg xmlns="http://www.w3.org/2000/svg" width="96" height="96" viewBox="0 0 96 96" role="img" aria-label="snow Mongree character">
  <defs>
    <radialGradient id="snowBody" cx="34%" cy="22%" r="78%">
      <stop offset="0%" stop-color="oklch(0.99 0.012 240)"/>
      <stop offset="58%" stop-color="oklch(0.91 0.035 235)"/>
      <stop offset="100%" stop-color="oklch(0.74 0.055 230)"/>
    </radialGradient>
    <linearGradient id="snowNose" x1="0%" x2="100%" y1="0%" y2="100%">
      <stop offset="0%" stop-color="oklch(0.84 0.16 58)"/>
      <stop offset="100%" stop-color="oklch(0.64 0.17 44)"/>
    </linearGradient>
    <filter id="snowShadow" x="-30%" y="-20%" width="160%" height="160%">
      <feDropShadow dx="0" dy="8" stdDeviation="5" flood-color="oklch(0.45 0.04 230)" flood-opacity="0.26"/>
    </filter>
    <radialGradient id="ambientGlow" cx="50%" cy="50%" r="54%">
      <stop offset="0%" stop-color="white" stop-opacity="0.5"/>
      <stop offset="100%" stop-color="oklch(0.78 0.04 230)" stop-opacity="0"/>
    </radialGradient>
    <linearGradient id="rimLight" x1="18%" x2="86%" y1="0%" y2="100%">
      <stop offset="0%" stop-color="white" stop-opacity="0.75"/>
      <stop offset="100%" stop-color="white" stop-opacity="0.08"/>
    </linearGradient>
    <filter id="floorShadow" x="-20%" y="-20%" width="140%" height="140%">
      <feGaussianBlur stdDeviation="3"/>
    </filter>
  </defs>
  <ellipse cx="48" cy="83" rx="28" ry="7" fill="oklch(0.5 0.03 230)" opacity="0.14" filter="url(#floorShadow)"/>
  <circle cx="48" cy="51" r="34" fill="url(#ambientGlow)"/>
  <g filter="url(#snowShadow)">
    <circle cx="48" cy="58" r="22" fill="url(#snowBody)"/>
    <circle cx="48" cy="36" r="17" fill="url(#snowBody)"/>
    <path id="rim" d="M37 28 C42 18 57 20 64 32" stroke="url(#rimLight)" stroke-width="2.4" fill="none" stroke-linecap="round" opacity="0.72"/>
    <circle cx="42" cy="34" r="2.4" fill="oklch(0.24 0.03 240)"/>
    <circle cx="54" cy="34" r="2.4" fill="oklch(0.24 0.03 240)"/>
    <path d="M48 39 L56 42 L48 46 Z" fill="url(#snowNose)"/>
    <path d="M40 50 Q48 55 56 50" stroke="oklch(0.24 0.03 240)" stroke-width="2" fill="none" stroke-linecap="round"/>
    <path d="M22 22 L22 32 M17 27 L27 27 M18.5 23.5 L25.5 30.5 M25.5 23.5 L18.5 30.5" stroke="oklch(0.82 0.05 230)" stroke-width="1.8" stroke-linecap="round" opacity="0.85"/>
    <path d="M73 50 L73 60 M68 55 L78 55 M69.5 51.5 L76.5 58.5 M76.5 51.5 L69.5 58.5" stroke="oklch(0.82 0.05 230)" stroke-width="1.8" stroke-linecap="round" opacity="0.62"/>
    <ellipse id="specularHighlight" cx="41" cy="28" rx="7" ry="4" fill="oklch(1 0.008 240)" opacity="0.6" transform="rotate(-22 41 28)"/>
  </g>
</svg>
